HIERARCHY
ROOT Hips
{
	OFFSET 0.00000 0.00000 0.00000
	CHANNELS 6 Xposition Yposition Zposition Zrotation Yrotation Xrotation 
	JOINT LHipJoint
	{
		OFFSET 0 0 0
		CHANNELS 3 Zrotation Yrotation Xrotation
		JOINT LeftHip
		{
			OFFSET 1.57358 -1.76629 0.73362
			CHANNELS 3 Zrotation Yrotation Xrotation
			JOINT LeftKnee
			{
				OFFSET 2.40600 -6.61045 0.00000
				CHANNELS 3 Zrotation Yrotation Xrotation
				JOINT LeftAnkle
				{
					OFFSET 2.66168 -7.31291 0.00000
					CHANNELS 3 Zrotation Yrotation Xrotation
					JOINT LeftToe
					{
						OFFSET 0.20870 -0.57341 2.12506
						CHANNELS 3 Zrotation Yrotation Xrotation
						End Site
						{
							OFFSET 0.00000 -0.00000 1.10557
						}
					}
				}
			}
		}
	}
	JOINT RHipJoint
	{
		OFFSET 0 0 0
		CHANNELS 3 Zrotation Yrotation Xrotation
		JOINT RightHip
		{
			OFFSET -1.49299 -1.76629 0.73362
			CHANNELS 3 Zrotation Yrotation Xrotation
			JOINT RightKnee
			{
				OFFSET -2.43663 -6.69460 0.00000
				CHANNELS 3 Zrotation Yrotation Xrotation
				JOINT RightAnkle
				{
					OFFSET -2.62959 -7.22474 0.00000
					CHANNELS 3 Zrotation Yrotation Xrotation
					JOINT RightToe
					{
						OFFSET -0.25784 -0.70841 2.21862
						CHANNELS 3 Zrotation Yrotation Xrotation
						End Site
						{
							OFFSET -0.00000 -0.00000 1.16452
						}
					}
				}
			}
		}
	}
	JOINT lowerback
	{
		OFFSET 0 0 0
		CHANNELS 3 Zrotation Yrotation Xrotation
		JOINT Chest
		{
			OFFSET -0.00034 2.12399 -0.25450
			CHANNELS 3 Zrotation Yrotation Xrotation
			JOINT Chest2
			{
				OFFSET 0.05594 2.14379 -0.03318
				CHANNELS 3 Zrotation Yrotation Xrotation
				JOINT lowerneck
				{
					OFFSET 0 0 0
					CHANNELS 3 Zrotation Yrotation Xrotation
					JOINT Neck
					{
						OFFSET -0.09835 1.62725 0.24211
						CHANNELS 3 Zrotation Yrotation Xrotation
						JOINT Head
						{
							OFFSET 0.10849 1.66041 -0.22648
							CHANNELS 3 Zrotation Yrotation Xrotation
							End Site
							{
								OFFSET 0.04385 1.68267 -0.10541
							}
						}
					}
				}
				JOINT LeftCollar
				{
					OFFSET 0 0 0
					CHANNELS 3 Zrotation Yrotation Xrotation
					JOINT LeftShoulder
					{
						OFFSET 3.29108 0.79398 -0.68179
CHANNELS 3 Zrotation Xrotation Yrotation
						JOINT LeftElbow
						{
OFFSET 0 -5.153100 -0.000000
CHANNELS 3 Zrotation Xrotation Yrotation
							JOINT LeftWrist
							{
OFFSET 0 -3.751380 -0.000000
CHANNELS 3 Zrotation Xrotation Yrotation
								JOINT lhand
								{
									OFFSET 0 0 0
CHANNELS 3 Zrotation Xrotation Yrotation
									JOINT LFingers
									{
OFFSET 0 -0.529170 0.000000
CHANNELS 3 Zrotation Xrotation Yrotation
										End Site
										{
OFFSET 0 -0.426630 0.000000
										}
									}
								}
								JOINT LThumb
								{
OFFSET 0 0.000000 0.000000
CHANNELS 3 Zrotation Xrotation Yrotation
									End Site
									{
OFFSET 0 -0.433150 0.433150
									}
								}
							}
						}
					}
				}
				JOINT RightCollar
				{
					OFFSET 0 0 0
					CHANNELS 3 Zrotation Yrotation Xrotation
					JOINT RightShoulder
					{
						OFFSET -3.07414 1.06285 -0.44338
CHANNELS 3 Zrotation Xrotation Yrotation
						JOINT RightElbow
						{
OFFSET 0 -5.296130 0.000000
CHANNELS 3 Zrotation Xrotation Yrotation
							JOINT RightWrist
							{
OFFSET 0 -3.761440 -0.000000
CHANNELS 3 Zrotation Xrotation Yrotation
								JOINT rhand
								{
									OFFSET 0 0 0
CHANNELS 3 Zrotation Xrotation Yrotation
									JOINT RFingers
									{
OFFSET 0 -0.747320 0.000000
CHANNELS 3 Zrotation Xrotation Yrotation
										End Site
										{
OFFSET 0 -0.602510 0.000000
										}
									}
								}
								JOINT RThumb
								{
OFFSET 0 0.000000 0.000000
CHANNELS 3 Zrotation Xrotation Yrotation
									End Site
									{
OFFSET 0 -0.611710 0.611710
									}
								}
							}
						}
					}
				}
			}
		}
	}
}
MOTION
Frames: 8
Frame Time: 0.008333333333333333
-9.195700 17.314100 -32.095800 -0.505000 -0.453900 -1.472300 0.000000 0.000000 0.000000 -19.427100 -5.002100 -7.459500 11.189600 18.026600 63.395900 0.258300 -7.178400 14.803000 0.421200 -4.165300 -11.542100 0.000000 0.000000 0.000000 23.864700 10.287100 -17.438900 -3.055000 -10.783600 31.553600 -0.219700 -1.668500 -9.627900 -0.132200 -2.343400 6.455700 -6.403300 -4.222800 7.222400 6.570500 -5.932700 -2.226300 11.326900 -2.642000 -5.050100 -12.725700 1.032800 -7.299000 4.618700 2.373100 17.357400 3.757700 0.689500 6.279200 0.000000 -0.000000 0.000000 -2.973100 0.978600 -13.934200 15.336300 -24.612500 3.364800 17.796800 16.889600 -26.028600 0.000000 0.000000 0.000000 -7.125000 0.000000 0.000000 -13.236800 56.639700 3.823300 0.000000 -0.000000 0.000000 -90.000000 0.000000 -0.000000 0.000000 0.000000 -0.000000 0.000000 0.000000 -0.000000 0.000000 0.000000 0.000000 0.000000 -0.000000 0.000000 0.000000 0.000000 0.000000
-9.217742 17.320546 -31.989378 -0.546514 -1.939937 -1.215417 0.000000 0.000000 0.000000 -19.214390 -3.832626 -8.806255 11.321445 18.088082 63.820282 0.154537 -7.385115 13.303306 0.442160 -4.264871 -11.823279 0.000000 0.000000 0.000000 24.146555 11.255449 -16.946409 -3.041027 -10.761153 31.478685 -0.233628 -1.291041 -9.703311 -0.148968 -2.482457 6.841182 -7.125043 -3.852598 7.244216 6.989068 -5.488620 -2.484355 12.234488 -2.354646 -5.357107 -12.938455 1.207331 -7.154219 4.293077 2.677177 17.645160 3.710326 0.784293 6.326754 0.000000 0.000000 0.000000 -3.769352 1.743976 -13.393930 15.349552 -24.630801 3.370299 17.822132 17.158518 -25.733989 0.000000 0.000000 0.000000 -7.125000 0.000000 0.000000 -13.058438 56.352797 3.680818 0.000000 0.000000 0.000000 -90.000000 0.000000 0.000000 0.000000 0.000000 0.000000 0.000000 0.000000 0.000000 0.000000 0.000000 0.000000 0.000000 0.000000 0.000000 0.000000 0.000000 0.000000
-9.239783 17.326991 -31.882955 -0.588028 -3.425973 -0.958534 0.000000 0.000000 0.000000 -19.001681 -2.663152 -10.153009 11.453289 18.149565 64.244665 0.050774 -7.591829 11.803611 0.463120 -4.364442 -12.104457 0.000000 0.000000 0.000000 24.428410 12.223798 -16.453918 -3.027053 -10.738705 31.403770 -0.247556 -0.913582 -9.778721 -0.165736 -2.621514 7.226665 -7.846786 -3.482396 7.266033 7.407635 -5.044540 -2.742410 13.142075 -2.067292 -5.664113 -13.151209 1.381862 -7.009437 3.967455 2.981254 17.932919 3.662952 0.879086 6.374309 0.000000 0.000000 0.000000 -4.565604 2.509351 -12.853659 15.362804 -24.649101 3.375798 17.847464 17.427436 -25.439378 0.000000 0.000000 0.000000 -7.125000 0.000000 0.000000 -12.880075 56.065894 3.538335 0.000000 0.000000 0.000000 -90.000000 0.000000 0.000000 0.000000 0.000000 0.000000 0.000000 0.000000 0.000000 0.000000 0.000000 0.000000 0.000000 0.000000 0.000000 0.000000 0.000000 0.000000
-9.256260 17.338052 -31.777343 -0.671743 -4.881857 -0.727259 0.000000 0.000000 0.000000 -18.805880 -1.527388 -11.419767 11.533247 18.186108 64.501268 0.018519 -7.516212 11.104906 0.353711 -3.702792 -10.254642 0.000000 0.000000 0.000000 24.726468 12.980689 -15.898585 -2.980602 -10.662962 31.152200 -0.254052 -0.407656 -9.696041 -0.149744 -2.483170 6.843424 -8.124689 -3.035438 7.005905 7.556975 -4.447405 -2.787845 13.420080 -1.749398 -5.700765 -13.264734 1.398865 -6.929541 3.931244 3.016068 18.151743 3.675778 0.875952 6.427816 0.000000 0.000000 0.000000 -4.865460 2.947554 -12.793863 15.322056 -24.592794 3.358859 17.849301 17.590890 -24.935352 0.000000 0.000000 0.000000 -7.125000 0.000000 0.000000 -12.632601 55.564574 3.317723 0.000000 0.000000 0.000000 -90.000000 0.000000 0.000000 0.000000 0.000000 0.000000 0.000000 0.000000 0.000000 0.000000 0.000000 0.000000 0.000000 0.000000 0.000000 0.000000 0.000000 0.000000
-9.271179 17.350402 -31.671957 -0.767257 -6.329310 -0.503146 0.000000 0.000000 0.000000 -18.614806 -0.401051 -12.664156 11.598696 18.215677 64.710958 0.006258 -7.361650 10.630175 0.207848 -2.828290 -7.808955 0.000000 0.000000 0.000000 25.029057 13.678452 -15.325681 -2.925070 -10.572316 30.851234 -0.258469 0.134192 -9.569154 -0.124592 -2.267261 6.245232 -8.278485 -2.567017 6.666940 7.631034 -3.807474 -2.773827 13.522040 -1.422964 -5.661820 -13.350512 1.371820 -6.867788 3.975958 2.975590 18.351290 3.705438 0.845437 6.482988 0.000000 0.000000 0.000000 -5.026514 3.294271 -12.868417 15.266208 -24.515626 3.335645 17.844568 17.724853 -24.372769 0.000000 0.000000 0.000000 -7.125000 0.000000 0.000000 -12.365801 55.003298 3.075264 0.000000 0.000000 0.000000 -90.000000 0.000000 0.000000 0.000000 0.000000 0.000000 0.000000 0.000000 0.000000 0.000000 0.000000 0.000000 0.000000 0.000000 0.000000 0.000000 0.000000 0.000000
-9.279502 17.366813 -31.564136 -0.864319 -7.429903 -0.330596 0.000000 0.000000 0.000000 -18.487045 0.377437 -13.774739 11.656203 18.241415 64.894840 -0.009276 -7.070287 9.818988 0.139203 -2.403164 -6.621190 0.000000 0.000000 0.000000 25.272445 14.097819 -14.781552 -2.874485 -10.488648 30.574526 -0.262684 0.602045 -9.494440 -0.100303 -2.026635 5.579795 -8.161295 -2.084132 6.360228 7.535202 -3.132575 -2.684975 13.255216 -1.098534 -5.587147 -13.247343 1.213202 -7.011223 4.118952 2.741573 18.529624 3.726190 0.745112 6.583278 0.000000 0.000000 0.000000 -4.883846 3.428392 -13.430564 15.186887 -24.405672 3.302865 17.871530 17.829254 -24.098023 0.000000 0.000000 0.000000 -7.125000 0.000000 0.000000 -12.206391 54.734832 2.951816 0.000000 0.000000 0.000000 -90.000000 0.000000 0.000000 0.000000 0.000000 0.000000 0.000000 0.000000 0.000000 0.000000 0.000000 0.000000 0.000000 0.000000 0.000000 0.000000 0.000000 0.000000
-9.282702 17.386376 -31.454423 -0.962583 -8.261223 -0.198075 0.000000 0.000000 0.000000 -18.408434 0.885884 -14.781447 11.707543 18.264178 65.058688 -0.027351 -6.672724 8.746606 0.130503 -2.326897 -6.409968 0.000000 0.000000 0.000000 25.469874 14.301062 -14.259762 -2.827743 -10.410397 30.316651 -0.266741 1.012454 -9.460228 -0.076684 -1.766822 4.862154 -7.833734 -1.590019 6.078553 7.307483 -2.430530 -2.538031 12.702099 -0.775661 -5.484736 -12.997491 0.952442 -7.313947 4.338243 2.357307 18.691489 3.740028 0.590595 6.718593 0.000000 0.000000 0.000000 -4.505395 3.397471 -14.371237 15.089345 -24.270266 3.262658 17.923096 17.910705 -24.046727 0.000000 0.000000 0.000000 -7.125000 0.000000 0.000000 -12.130350 54.693678 2.920759 0.000000 0.000000 0.000000 -90.000000 0.000000 0.000000 0.000000 0.000000 0.000000 0.000000 0.000000 0.000000 0.000000 0.000000 0.000000 0.000000 0.000000 0.000000 0.000000 0.000000 0.000000
-9.276043 17.405783 -31.336171 -1.035353 -7.851669 -0.286611 0.000000 0.000000 0.000000 -18.411644 0.312924 -15.316122 11.752285 18.283944 65.201406 -0.043842 -6.260878 7.567049 0.157575 -2.501637 -6.897364 0.000000 0.000000 0.000000 25.578309 13.662835 -13.710181 -2.780332 -10.330362 30.053575 -0.280579 1.001010 -9.717468 -0.059725 -1.576347 4.336133 -7.270134 -1.461276 6.048693 6.977199 -2.217084 -2.362161 11.950748 -0.708375 -5.383241 -12.611882 0.620326 -7.786478 4.513999 1.880461 18.830810 3.709400 0.400585 6.886125 0.000000 0.000000 0.000000 -4.012209 3.247031 -15.505098 14.976028 -24.112472 3.216256 17.879581 17.840390 -24.224066 0.000000 0.000000 0.000000 -7.125000 0.000000 0.000000 -12.261516 54.861301 3.008056 0.000000 0.000000 0.000000 -90.000000 0.000000 0.000000 0.000000 0.000000 0.000000 0.000000 0.000000 0.000000 0.000000 0.000000 0.000000 0.000000 0.000000 0.000000 0.000000 0.000000 0.000000
